<?xml version="1.0" standalone="no"?>
<!DOCTYPE svg PUBLIC "-//W3C//DTD SVG 20010904//EN"
 "http://www.w3.org/TR/2001/REC-SVG-20010904/DTD/svg10.dtd">
<svg version="1.0" xmlns="http://www.w3.org/2000/svg"
 width="600.000000pt" height="200.000000pt" viewBox="0 0 600.000000 200.000000"
 preserveAspectRatio="xMidYMid meet">

<g transform="translate(0.000000,200.000000) scale(0.100000,-0.100000)"
fill="#000000" stroke="none">
<path d="M3560 1015 l0 -285 50 0 c44 0 50 3 50 21 0 17 2 18 14 6 8 -7 35
-21 60 -31 44 -17 49 -17 98 0 57 19 104 60 115 102 14 49 8 145 -11 185 -40
82 -154 115 -232 66 l-34 -21 0 121 0 121 -55 0 -55 0 0 -285z m254 -28 c33
-28 44 -89 24 -127 -16 -29 -75 -52 -109 -42 -51 15 -62 28 -67 80 -4 47 -2
54 26 82 38 38 87 41 126 7z"/>
<path d="M5540 1187 c0 -63 -3 -117 -6 -120 -4 -4 -19 2 -34 13 -38 27 -121
27 -164 1 -71 -44 -105 -133 -86 -225 14 -68 53 -109 125 -131 53 -17 57 -17
98 0 23 10 48 26 55 34 11 14 13 13 18 -7 6 -19 13 -22 55 -22 l49 0 0 285 0
285 -55 0 -55 0 0 -113z m-55 -183 c26 -7 65 -63 65 -93 0 -92 -116 -130 -176
-58 -61 72 17 177 111 151z"/>
<path d="M1300 1270 c-8 -4 -28 -14 -45 -20 -38 -15 -75 -61 -86 -108 -17 -77
26 -148 106 -172 65 -19 142 -57 148 -73 25 -65 -73 -100 -158 -57 l-39 20
-33 -32 c-44 -42 -42 -64 5 -84 20 -9 45 -20 54 -25 29 -15 119 -10 168 8 55
20 88 48 106 90 38 89 -6 191 -89 209 -18 3 -36 10 -42 14 -5 4 -25 11 -43 15
-40 8 -62 29 -62 60 0 49 82 72 143 40 28 -14 29 -13 63 23 18 20 34 42 34 48
0 6 -23 21 -51 33 -53 22 -150 28 -179 11z"/>
<path d="M2436 1258 c-32 -46 -7 -108 43 -108 35 0 61 28 61 67 0 58 -73 86
-104 41z"/>
<path d="M1615 1078 c-3 -13 -4 -135 -3 -273 l3 -250 53 -3 52 -3 0 100 c0 56
3 101 6 101 4 0 34 -10 66 -22 53 -19 64 -20 96 -8 59 21 82 40 108 91 50 100
23 215 -62 265 -52 31 -126 32 -169 4 -37 -25 -41 -25 -48 0 -4 16 -14 20 -51
20 -39 0 -46 -3 -51 -22z m258 -88 c47 -37 47 -126 1 -157 -37 -24 -100 -20
-129 7 -20 19 -25 33 -25 71 0 40 4 51 31 73 37 32 86 34 122 6z"/>
<path d="M2100 915 l0 -185 55 0 55 0 0 113 c0 61 4 117 8 123 17 24 59 44 94
44 l38 0 0 45 0 45 -39 0 c-28 0 -49 -8 -70 -26 -29 -24 -31 -24 -31 -6 0 24
-18 32 -71 32 l-39 0 0 -185z"/>
<path d="M2430 916 l0 -186 55 0 55 0 -2 183 -3 182 -52 3 -53 3 0 -185z"/>
<path d="M2637 1093 c-4 -3 -7 -87 -7 -185 l0 -178 54 0 54 0 4 121 c3 113 5
122 27 140 34 28 66 24 90 -10 18 -25 21 -44 21 -140 l0 -111 55 0 55 0 0 118
c-1 146 -10 189 -50 225 -25 22 -40 27 -81 27 -49 0 -109 -24 -109 -43 0 -4
-4 -5 -10 -2 -5 3 -10 15 -10 26 0 16 -7 19 -43 19 -24 0 -47 -3 -50 -7z"/>
<path d="M3148 1075 c-58 -40 -82 -88 -82 -166 0 -58 4 -73 29 -109 16 -23 42
-49 59 -57 43 -23 135 -22 169 0 24 15 28 16 33 3 10 -26 -15 -82 -42 -95 -38
-17 -105 -13 -149 9 -21 11 -39 19 -40 17 0 -1 -13 -19 -29 -40 -32 -43 -26
-59 27 -76 104 -32 233 -20 285 27 54 50 63 94 60 312 l-3 195 -43 3 c-37 3
-44 0 -49 -17 -7 -26 -5 -26 -53 -1 -56 28 -126 27 -172 -5z m181 -91 c26 -21
31 -33 31 -68 0 -53 -21 -83 -65 -92 -46 -8 -87 9 -109 47 -23 39 -14 81 26
114 38 32 78 32 117 -1z"/>
<path d="M4123 1077 c-51 -27 -78 -60 -93 -115 -27 -103 28 -202 132 -235 67
-21 67 -21 135 -1 97 28 150 106 141 205 -10 102 -94 169 -210 169 -45 -1 -75
-7 -105 -23z m181 -103 c47 -54 26 -135 -39 -153 -48 -13 -83 -3 -110 34 -35
44 -32 76 10 121 32 33 39 36 75 31 26 -3 47 -14 64 -33z"/>
<path d="M4573 1079 c-49 -22 -53 -36 -20 -67 l23 -22 39 20 c45 23 67 25 98
9 51 -27 50 -59 -3 -59 -36 0 -120 -18 -162 -35 -27 -11 -51 -55 -51 -95 0
-53 26 -86 84 -105 53 -18 74 -14 142 21 24 14 27 13 27 0 0 -12 11 -16 50
-16 l50 0 0 138 c0 153 -11 186 -69 217 -43 22 -154 19 -208 -6z m177 -218 c0
-51 -68 -86 -124 -65 -19 7 -21 57 -3 72 16 13 43 19 90 21 35 1 37 -1 37 -28z"/>
<path d="M4947 1094 c-4 -4 -7 -88 -7 -186 l0 -178 55 0 55 0 0 95 c0 145 24
185 109 185 l41 0 0 45 0 45 -43 0 c-31 0 -49 -6 -69 -25 -33 -31 -36 -31 -40
-2 -3 19 -10 22 -48 25 -25 2 -49 0 -53 -4z"/>
</g>
</svg>
